HIERARCHY
ROOT Hips
{
  OFFSET 0.0 0.0 0.0
  CHANNELS 6 XPOSITION YPOSITION ZPOSITION ZROTATION XROTATION YROTATION 
  JOINT LeftUpLeg
  {
    OFFSET 0.08945800000000001 -0.0866707 0.0010165200000000001
    CHANNELS 3 ZROTATION XROTATION YROTATION 
    JOINT LeftLeg
    {
      OFFSET 0.0 -0.444227 0.013727000000000001
      CHANNELS 3 ZROTATION XROTATION YROTATION 
      JOINT LeftFoot
      {
        OFFSET -0.0025354900000000005 -0.42092399999999996 -0.014605900000000002
        CHANNELS 3 ZROTATION XROTATION YROTATION 
        End Site
        {
          OFFSET -0.0004 -0.0441509 0.08499100000000001
        }
      }
    }
  }
  JOINT Spine
  {
    OFFSET 0.0 0.118905 0.0
    CHANNELS 3 ZROTATION XROTATION YROTATION 
    JOINT Spine1
    {
      OFFSET 0.0 0.25657399999999997 0.00127663
      CHANNELS 3 ZROTATION XROTATION YROTATION 
      End Site
      {
        OFFSET -0.0029 0.21508359999999999 0.02525291
      }
      JOINT RightArm
      {
        OFFSET -0.162727 -0.05365632 0.0010212299999999997
        CHANNELS 3 ZROTATION XROTATION YROTATION 
        JOINT RightForeArm
        {
          OFFSET -0.26364 0.00099144 -0.0142434
          CHANNELS 3 ZROTATION XROTATION YROTATION 
          End Site
          {
            OFFSET -0.220324 0.0008536199999999999 0.010221599999999999
          }
        }
      }
      JOINT LeftArm
      {
        OFFSET 0.162727 -0.053656319900000006 0.0010212299999999997
        CHANNELS 3 ZROTATION XROTATION YROTATION 
        JOINT LeftForeArm
        {
          OFFSET 0.26259699999999997 0.00099144 -0.0142434
          CHANNELS 3 ZROTATION XROTATION YROTATION 
          End Site
          {
            OFFSET 0.220902 0.0008536199999999999 0.010221599999999999
          }
        }
      }
    }
  }
  JOINT RightUpLeg
  {
    OFFSET -0.08945800000000001 -0.0866707 0.0010165200000000001
    CHANNELS 3 ZROTATION XROTATION YROTATION 
    JOINT RightLeg
    {
      OFFSET 0.0 -0.444227 0.013727000000000001
      CHANNELS 3 ZROTATION XROTATION YROTATION 
      JOINT RightFoot
      {
        OFFSET 0.0025354900000000005 -0.42092399999999996 -0.014605900000000002
        CHANNELS 3 ZROTATION XROTATION YROTATION 
        End Site
        {
          OFFSET 0.0004 -0.0441509 0.08499100000000001
        }
      }
    }
  }
}
MOTION
Frames: 15
Frame Time: 0.033333
0.0524471 0.7545108902962209 0.00688827 -10.94480014018692 -1.5365100708976656 -86.5250003302616 -12.497599251759715 -58.770997920967524 -17.083199576530454 2.488319876905685 72.87389738712899 8.615189953930237 -2.174955493540555 -3.287464816401871 0.16046631658595073 8.141549632162057 47.70940069219974 -3.2819001332190147 -7.680509301865257 0.6004419832966739 2.169389956584052 65.87474299742846 -22.667048270197835 28.6461036620732 2.0468999053299823 22.30290014969319 36.01090198370661 -74.72918167137955 1.021391290960467 -30.74593945446149 -12.433199959396603 1.5445000048444053 -18.332999543690434 -3.1627598628660127 -59.74199810394405 1.244009887734514 -1.487190021952944 67.24670260544141 -4.935040059784585 3.8014117920095893 0.35645898168565004 -0.516896976998929 
-0.00404839 0.6931218902962207 0.005698839999999999 -15.550600749427973 -0.7617929828029131 -87.36100182429283 -11.865899814860978 -61.224401870836104 -16.3884002907582 108.31900016037008 89.29990128436269 -97.51939874288023 -1.9546161522368821 -12.432274468764067 0.00302381737667021 10.691199485172579 50.30439787865727 -4.040450056826641 -9.048089904846584 1.7330400130849084 3.0029899987917785 68.49759711041588 -20.234754727506473 32.26751435624357 1.6908099139420716 24.143400489485263 24.71419939842323 -89.09030326930251 -16.74817196755216 -37.01134369710047 -13.178900376184732 22.43630057437271 -4.791600110798793 -0.6771179537235015 -63.143999216311514 1.8387998361321494 -6.2368604552106754 84.87570089100029 0.6560650161848478 1.5261664964516217 -7.149288350959753 -0.208336230992514 
-0.0530659 0.6487228902962209 0.0029589700000000004 -17.565199196069084 -0.262115979918644 -87.51830108087822 -12.04150056332742 -62.68839827791498 -17.11179928613259 176.8500037260165 78.30100177708104 -165.97100135942523 -3.390287764827712 -22.048776131433698 -0.22061014763209302 11.416500688230817 50.487699665412904 -4.327529737831447 -9.327419882464364 2.2519199860989625 3.122180214903086 73.84599723056188 -21.808404699068024 38.297997657474546 4.7827699568624364 31.814000040638476 12.108299813410145 -96.7381753659925 -21.972938833531753 -42.773263960166545 -13.25870003757893 30.615400879044206 4.743629984710501 1.7469499067730507 -65.39719666122868 3.1568299780059723 -175.5659964639458 83.08770080026352 168.85700217056575 0.5737988027266292 -16.272787386224685 -0.17166701307176505 
-0.098292 0.6143838902962209 -0.000615904 -18.761499999007647 -0.06862470484979656 -87.00540168553445 -11.982799356279392 -63.187896842107186 -17.140699524058206 178.08300313536554 70.09739816876213 -167.5210035085329 -4.077473097222695 -27.107887004378387 -0.4457384920805759 11.617099929059508 51.439199658309036 -4.877540112256833 -8.882170095754988 -0.049404199009730275 2.4688000500314353 79.18008127420752 -23.234867509110384 43.640896060244096 9.643499692911398 40.51900100573886 1.2770099467094305 -97.9917063239866 -21.034837964239887 -45.682268848431654 -13.377799753683734 32.649400478022734 9.916270127605028 2.414399941169811 -66.40570141293774 2.9952701774823716 -177.94000629490216 74.52890003434726 170.5999981448613 0.9846344144986318 -21.455290749167535 -0.15349653542477584 
-0.135319 0.5932668902962208 -0.004497070000000001 -19.81510107471172 -0.1515280002007841 -86.25640314115086 -10.693099985309136 -62.45960060109789 -15.221800565425436 178.42699878272407 64.44840142324387 -167.24099307331906 -3.5984774802584014 -30.30637238514156 -0.4715428133627519 12.288000382925887 52.5238029626558 -5.586350250450899 -8.708340073830872 -1.8835100409956413 2.0533298881033146 79.81193524413624 -20.83065287409694 46.733950640978954 11.805000140673851 44.43589934378232 -3.195010095136109 -98.84063053592749 -18.956947569654854 -48.98273236859771 -14.306499721356722 35.032200762440894 11.195199997801467 1.2012399902038347 -65.90399669764362 0.944692001840926 -178.4540053507023 68.4568003905034 171.0559952342297 1.5991365022843356 -25.193303017753774 -0.07030342394152553 
-0.161447 0.5905748902962209 -0.00897991 -19.654198893339142 -0.4599380017977829 -85.52779954162892 -9.32520007098411 -61.19650054807661 -13.09220051618153 178.46900444611964 62.193298355548265 -165.8530030113241 -3.5186923330161903 -34.18531194687267 -0.5702093782352289 12.639399955344704 51.45120030068075 -5.520860262254701 -8.981800357630672 -0.7696790231690747 2.3140898620282995 81.06566427761626 -20.385934134595534 50.15470745280727 11.104800736589056 47.77850171603276 -2.109509901573962 -99.03725802175381 -15.484183989938769 -52.58978259003812 -14.687799300640915 35.55879810216512 7.8146499482960765 -0.13978699839902475 -64.4590974994841 -0.9976680162606029 -178.58999441707724 65.65410056648037 170.75000275941312 2.031964842936103 -30.19320298078362 0.04496930515480943 
-0.18141100000000002 0.6029858902962209 -0.0137958 -17.88620101158676 -0.763591030101919 -84.71269842645793 -8.980800588690911 -60.087100241948114 -12.634200473839032 178.36999402391112 62.954399995141124 -165.16999775470117 -4.243056519497668 -37.1515060090583 -0.8280613457602279 12.400099155131429 48.890900475206884 -4.833540033623611 -9.083159511140014 0.7751109979107917 2.6743699610286016 82.5139512496041 -20.676644061144202 53.073783455003564 8.469440547231335 46.78139996514303 2.1640498158701598 -95.58152381118586 -10.328857949703403 -54.44970115764054 -13.122699872146574 31.133399010603387 -1.3361000476533265 -0.8360430087747697 -63.00479996102665 -1.9534099835181402 -178.52900082778902 65.9437005872889 170.15099516920301 2.587133717732141 -34.42297862432702 0.21693563926075837 
-0.197942 0.6249878902962208 -0.0182683 -15.50279967052164 -0.8795990183902352 -83.7107028450279 -9.336270100081409 -58.86640200329426 -13.611300015744375 178.25099846819117 65.5472012757805 -165.55599906545527 -4.979796154981563 -37.80248109356846 -1.0352841091756844 12.263699423632628 47.13859836816719 -4.42182007243665 -8.736209806965462 0.05227460268369467 2.615160118330819 83.40140455865304 -20.733510508626438 54.826905184743666 6.50619018210991 42.16610112408743 6.4773800173039735 -82.4364217723353 0.7594104207213422 -54.40784234331212 -10.93629996976484 14.648500099703954 -13.747599855726564 -1.349090000237633 -61.59769902973398 -2.611440013110689 -178.37700179799955 68.1478982551004 169.91599568061955 3.4786780966504938 -35.928188392857756 0.44888387423464615 
-0.20965699999999998 0.6562448902962209 -0.022329599999999998 -13.139900849797606 -0.9342390376464563 -82.67019865705733 -9.720350420131442 -57.17309907030514 -14.746100087848852 177.97900667506292 69.71169738633151 -165.72500526627806 -5.446992620154659 -37.348061777898344 -1.130184038164311 12.334400419278722 46.090201896610665 -4.288710357683679 -8.350229840552517 -1.5976299119638189 2.398259990717659 82.69643341365934 -19.775711373768257 55.69401819044429 5.488550479272779 36.18020188266372 9.997730378741185 -73.59234449535512 7.764548803186741 -55.49808055372414 -10.38660036894669 5.033700007911303 -23.71110074144223 -1.864940037302846 -59.74740078357753 -3.207379994609825 -178.07700622927428 71.88780248608673 169.674002078326 4.749182928505721 -36.138175728700624 0.7507470194502687 
-0.21861999999999998 0.6965468902962207 -0.0260867 -10.53570083720713 -1.1103800113875648 -81.77629764943191 -10.013899997827544 -55.05359916329639 -15.543000456429041 177.17900027795767 75.64579988818443 -164.9180047554627 -5.912794446076604 -36.80214866320132 -1.214654268290328 12.071000150352704 44.04730256114361 -3.830239886062097 -8.191199984786172 -2.0310201423965255 2.412820033037422 81.42495954871562 -18.50166252750744 56.471645472734 4.865280349583482 31.93670097398317 12.447100248131227 -75.81432114557616 6.16523482270569 -55.92208162192561 -9.649669915052858 10.92029939786044 -29.114200431556274 -2.1295799855632214 -57.39050057649206 -3.24952994575162 -177.24899605657197 77.38279895638871 168.64499309872855 6.210593682096921 -36.37719819870522 1.102899887029343 
-0.22911600000000001 0.7410998902962209 -0.028997600000000002 -7.766979496757618 -1.3427499838622743 -81.11699997941808 -10.125699949256896 -52.49740086641911 -16.082500023495424 174.44900098746024 82.7547973801171 -162.22499776951008 -6.431651473923915 -35.642163976079715 -1.2702735659187998 11.519699723947832 40.957700641034194 -3.0304501340195804 -8.166160511288904 -1.7630999957872517 2.617050159740208 80.7579847460747 -17.582327602960184 56.96248335705862 4.455839964032014 30.5874995562847 13.616599388766659 -75.34263511168425 6.627384631855794 -56.28924868604339 -8.08375001008447 14.747399531338447 -33.288299788080316 -2.154319784510654 -54.7005979115172 -2.7715799880605734 -174.05200307214244 84.09220306111895 165.18599405773733 7.3738986949287995 -35.92925048727369 1.3452070376944807 
-0.241704 0.7857598902962208 -0.030539100000000003 -5.456530125556936 -1.5127799660086314 -80.78180161571053 -9.69134943691557 -49.28939761704753 -16.1156008277606 67.85570276240726 89.25749946999525 -55.7700006298661 -6.868442925119877 -33.69869511945512 -1.2485197335774265 11.177800090890859 37.857098701266466 -2.2243800230352364 -8.261119777545947 -1.8524399373480764 2.905399829043813 80.80300935308343 -16.978473993533942 56.578780404960234 4.262110185961065 30.99499888745142 13.843000522958718 -74.07721962453432 7.607025857906029 -55.76892829016641 -6.601239521486631 17.233598634506844 -35.96070009330701 -2.1217698776907232 -51.53009923087816 -2.294910050508669 -26.46849933579515 88.62580259441745 17.53810042053706 7.907969969152314 -34.41802332208418 1.359582878350065 
-0.255363 0.8298268902962208 -0.0309005 -3.7996897305651 -1.6568300429863754 -80.85689954563483 -8.663520372497247 -45.38260112878652 -15.414799513255195 4.9176700349515965 81.96250226658479 7.29539079306138 -7.208430532096071 -31.743068526107894 -1.192185400520219 11.017700456745759 34.61340088329239 -1.388709899900467 -8.608240236449749 -1.6815400665778948 3.369899863598636 81.39140965951252 -16.568797539569285 55.3368744289335 4.312379951365536 31.771697264014 13.558199563815757 -72.27859858963818 8.86927982124388 -54.55041571204696 -6.1035197946863935 18.03090027670077 -37.15519772630469 -1.9932899639779638 -47.6949002005918 -1.875760124165204 -4.071589743026375 81.38949720654492 -4.8802602350937905 7.961145553161803 -32.71429410532703 1.2478120619463897 
-0.27060500000000004 0.8720198902962208 -0.030483600000000003 -2.4885501823467617 -1.7938401159205404 -81.28739953883156 -7.383449860709416 -41.081398781997706 -14.282399398870332 2.5419402769848705 73.9632032767193 10.05040052875209 -7.473896933246018 -29.959064096035583 -1.1228652770252308 10.755699522825948 30.59810000987656 -0.42090403098011536 -9.086910138767998 -0.6627329883620727 4.005459851482312 82.1744840176653 -16.102604685317356 53.36843781579792 4.679290029615804 32.10999994869932 12.976299889929228 -70.24439750007913 10.13092675151925 -52.6270959134739 -6.472980094818016 17.672800288706174 -37.35900032585412 -1.6352699105409956 -43.435700102103986 -1.1758100219851135 -2.181429872543492 73.66160261353905 -6.9561899385002075 7.785109380135771 -31.07549949700919 1.0986724268199282 
-0.287022 0.9100018902962208 -0.029472900000000003 -1.4040499711677867 -1.847970005423126 -81.87480263764184 -6.066479678817415 -36.71309665680269 -13.091199893468122 1.7567099269318818 65.98709960927516 11.11429982217725 -7.586592493230289 -27.854913331639143 -1.0012546126268 10.488799635723945 26.257299641374605 0.47689997618871616 -9.427459955690248 0.3914179976114645 4.552809867225977 82.60363846359554 -15.132347285413072 50.498962647354254 5.104280194586453 31.948899691840815 12.613300094978792 -68.60488572189844 10.991290676546258 -49.39884456830781 -7.094319842293137 17.026300685649662 -37.45099955887961 -1.1789699449715965 -39.1287979624528 -0.3151130185143597 -1.5235300434319967 65.8702009216304 -7.803049725764456 7.429983085751067 -28.96263170368452 0.8965879400118784 
